<svg width="217" height="214" viewBox="0 0 217 214" fill="none" xmlns="http://www.w3.org/2000/svg">
<g clip-path="url(#clip0_5_784)">
<path d="M162.75 196.167C167.546 196.167 172.145 194.288 175.537 190.943C178.928 187.599 180.833 183.063 180.833 178.333V71.3333L126.583 17.8333H54.2498C49.4538 17.8333 44.8543 19.7122 41.463 23.0566C38.0717 26.401 36.1665 30.937 36.1665 35.6667V178.333C36.1665 183.063 38.0717 187.599 41.463 190.943C44.8543 194.288 49.4538 196.167 54.2498 196.167H162.75ZM117.542 35.6667L162.75 80.25H117.542V35.6667ZM63.2915 71.3333H90.4165V89.1667H63.2915V71.3333ZM63.2915 107H153.708V124.833H63.2915V107ZM63.2915 142.667H153.708V160.5H63.2915V142.667Z" fill="#0F904A"/>
<path d="M162.129 14.1375C171.257 14.1375 179.868 15.8445 187.963 19.2585C196.057 22.6725 202.817 27.603 208.242 34.05C208.845 34.725 209.039 35.325 208.826 35.85C208.612 36.375 208.245 36.825 207.725 37.2C207.205 37.575 206.602 37.7445 205.917 37.7085C205.231 37.6725 204.629 37.353 204.108 36.75C199.372 30.9 193.281 26.4195 185.834 23.3085C178.387 20.1975 170.486 18.6405 162.129 18.6375C153.773 18.6345 145.937 20.1915 138.621 23.3085C131.305 26.4255 125.234 30.906 120.408 36.75C119.892 37.425 119.289 37.8 118.6 37.875C117.911 37.95 117.308 37.8 116.792 37.425C116.189 37.05 115.822 36.582 115.691 36.021C115.56 35.46 115.755 34.878 116.275 34.275C121.614 27.9 128.31 22.95 136.363 19.425C144.416 15.9 153.005 14.1375 162.129 14.1375ZM162.129 24.7125C173.754 24.7125 183.743 28.0875 192.096 34.8375C200.449 41.5875 204.625 49.95 204.625 59.925C204.625 63.675 203.098 66.807 200.042 69.321C196.987 71.835 193.262 73.0905 188.867 73.0875C184.472 73.0845 180.705 71.829 177.567 69.321C174.429 66.813 172.857 63.681 172.85 59.925C172.85 57.45 171.796 55.368 169.688 53.679C167.58 51.99 165.061 51.147 162.129 51.15C159.198 51.153 156.678 51.9975 154.57 53.6835C152.462 55.3695 151.408 57.45 151.408 59.925C151.408 67.2 153.885 73.275 158.838 78.15C163.791 83.025 170.184 86.4375 178.017 88.3875C178.792 88.6125 179.308 88.9875 179.567 89.5125C179.825 90.0375 179.868 90.6 179.696 91.2C179.524 91.725 179.179 92.175 178.663 92.55C178.146 92.925 177.5 93.0375 176.725 92.8875C167.77 90.9375 160.45 87.0555 154.767 81.2415C149.083 75.4275 146.242 68.322 146.242 59.925C146.242 56.175 147.792 53.025 150.892 50.475C153.992 47.925 157.738 46.65 162.129 46.65C166.521 46.65 170.267 47.925 173.367 50.475C176.467 53.025 178.017 56.175 178.017 59.925C178.017 62.4 179.093 64.482 181.246 66.171C183.399 67.86 185.939 68.703 188.867 68.7C191.795 68.697 194.292 67.854 196.358 66.171C198.425 64.488 199.458 62.406 199.458 59.925C199.458 51.225 195.799 43.9125 188.479 37.9875C181.16 32.0625 172.42 29.1 162.258 29.1C152.097 29.1 143.357 32.0625 136.038 37.9875C128.718 43.9125 125.058 51.1875 125.058 59.8125C125.058 61.6125 125.253 63.8625 125.642 66.5625C126.032 69.2625 126.956 72.4125 128.417 76.0125C128.675 76.6875 128.654 77.2875 128.355 77.8125C128.055 78.3375 127.559 78.7125 126.867 78.9375C126.174 79.1625 125.508 79.1445 124.867 78.8835C124.227 78.6225 123.774 78.1905 123.508 77.5875C122.217 74.6625 121.292 71.757 120.734 68.871C120.176 65.985 119.895 63.003 119.892 59.925C119.892 49.95 124.048 41.5875 132.359 34.8375C140.67 28.0875 150.594 24.7125 162.129 24.7125ZM162.129 3.11249C167.64 3.11249 173.022 3.69299 178.275 4.85399C183.528 6.01499 188.608 7.68449 193.517 9.86249C194.292 10.2375 194.745 10.6875 194.876 11.2125C195.007 11.7375 194.941 12.2625 194.679 12.7875C194.418 13.3125 193.987 13.725 193.388 14.025C192.788 14.325 192.056 14.2875 191.192 13.9125C186.628 11.8875 181.912 10.332 177.045 9.24599C172.178 8.15999 167.206 7.61549 162.129 7.61249C157.135 7.61249 152.227 8.11949 147.404 9.13349C142.582 10.1475 137.975 11.7405 133.583 13.9125C132.895 14.2875 132.206 14.382 131.517 14.196C130.828 14.01 130.311 13.6155 129.967 13.0125C129.622 12.4095 129.536 11.8665 129.708 11.3835C129.881 10.9005 130.311 10.4685 131 10.0875C135.822 7.83749 140.86 6.11249 146.113 4.91249C151.365 3.71249 156.704 3.11249 162.129 3.11249ZM162.129 35.625C170.138 35.625 177.027 37.9695 182.796 42.6585C188.565 47.3475 191.45 53.103 191.45 59.925C191.45 60.6 191.214 61.1445 190.742 61.5585C190.27 61.9725 189.645 62.178 188.867 62.175C188.178 62.175 187.575 61.9695 187.058 61.5585C186.542 61.1475 186.284 60.603 186.284 59.925C186.284 54.3 183.893 49.5945 179.112 45.8085C174.331 42.0225 168.67 40.128 162.129 40.125C155.588 40.122 149.97 42.0165 145.276 45.8085C140.581 49.6005 138.233 54.306 138.233 59.925C138.233 66 139.439 71.157 141.85 75.396C144.261 79.635 147.792 83.8905 152.442 88.1625C152.958 88.6125 153.217 89.1375 153.217 89.7375C153.217 90.3375 152.958 90.8625 152.442 91.3125C151.925 91.7625 151.322 91.9875 150.633 91.9875C149.945 91.9875 149.342 91.7625 148.825 91.3125C143.745 86.6625 139.849 81.9195 137.138 77.0835C134.427 72.2475 133.07 66.528 133.067 59.925C133.067 53.1 135.908 47.343 141.592 42.654C147.275 37.965 154.121 35.622 162.129 35.625ZM162 57.675C162.775 57.675 163.4 57.9 163.876 58.35C164.351 58.8 164.587 59.325 164.583 59.925C164.583 65.55 166.908 70.1625 171.558 73.7625C176.208 77.3625 181.633 79.1625 187.833 79.1625C188.35 79.1625 189.082 79.125 190.029 79.05C190.977 78.975 191.967 78.8625 193 78.7125C193.775 78.5625 194.443 78.657 195.005 78.996C195.566 79.335 195.931 79.8405 196.1 80.5125C196.272 81.1125 196.143 81.6375 195.713 82.0875C195.282 82.5375 194.722 82.8375 194.034 82.9875C192.483 83.3625 191.128 83.5695 189.967 83.6085C188.807 83.6475 188.095 83.6655 187.833 83.6625C180.17 83.6625 173.517 81.4125 167.875 76.9125C162.233 72.4125 159.413 66.75 159.417 59.925C159.417 59.325 159.654 58.8 160.13 58.35C160.605 57.9 161.229 57.675 162 57.675Z" fill="black"/>
</g>
<defs>
<clipPath id="clip0_5_784">
<rect width="217" height="214" fill="white"/>
</clipPath>
</defs>
</svg>
